<svg width="320" height="320" viewBox="0 0 320 320" fill="none" xmlns="http://www.w3.org/2000/svg">
<rect x="2" y="2" width="316" height="316" stroke="white" stroke-width="4"/>
<path d="M69.9375 159V115.25H76.9375V159H69.9375ZM80.125 139.25V132.438H84.3125C87.3542 132.438 89 130.958 89.25 128C89.25 127.75 89.25 127.5 89.25 127.25C88.9583 123.958 87.3125 122.229 84.3125 122.062H80.125V115.25H84.875C92.4583 115.375 96.2708 119.333 96.3125 127.125C96.3125 133.167 94.3958 136.938 90.5625 138.438C88.9792 138.979 87.0833 139.25 84.875 139.25C84.7917 139.25 83.2083 139.25 80.125 139.25ZM99.75 146.812V126.25C99.75 124.042 100.688 121.792 102.562 119.5C105.062 116.5 108.229 114.979 112.062 114.938V121.875C109.896 121.917 108.271 123.083 107.188 125.375C106.854 126.125 106.688 126.75 106.688 127.25V146.812C106.688 149.062 107.854 150.729 110.188 151.812C110.896 152.146 111.5 152.312 112 152.312V159.312C109.625 159.312 107.25 158.458 104.875 156.75C101.5 154.25 99.7917 150.938 99.75 146.812ZM115.438 159.312V152.312C116.521 152.312 117.646 151.812 118.812 150.812C120.062 149.688 120.708 148.354 120.75 146.812V127.25C120.75 126 120.208 124.792 119.125 123.625C118.083 122.5 116.854 121.917 115.438 121.875V114.938C119.646 114.938 123.021 116.75 125.562 120.375C127.021 122.458 127.75 124.417 127.75 126.25V146.812C127.75 151.438 125.688 154.979 121.562 157.438C119.396 158.688 117.354 159.312 115.438 159.312ZM132.75 159V115.25H139.75V159H132.75ZM142.938 140.562V134.312H146.438C150.062 134.312 152.062 132.583 152.438 129.125C152.479 128.75 152.5 128.396 152.5 128.062C152.5 124.562 150.917 122.5 147.75 121.875C147.167 121.792 146.562 121.75 145.938 121.75H142.938V115.25H146.75C152.292 115.375 156.021 117.438 157.938 121.438C158.729 123.104 159.125 125.021 159.125 127.188C159.083 131.812 157.667 135.167 154.875 137.25C157.042 138.5 158.417 140.729 159 143.938C159.083 144.479 159.146 144.979 159.188 145.438L160.25 159H153.75L152.812 147.875C152.479 144.375 151.542 142.167 150 141.25C149.083 140.792 147.938 140.562 146.562 140.562H142.938ZM162.75 122.062V115.25H189.812V122.062H179.812V159H172.812V122.062H162.75ZM193.438 159V115.25H216.188V122.125H200.438V133.75H210.312V140.75H200.438V152.062H216.188V159H193.438ZM221.25 159V126.375H221.75L228.25 136.812V159H221.25ZM221.25 119.75V115.25H227.062L249.062 150.562V159H245.688L221.25 119.75ZM242.062 133.5V115.25H249.062V143.938H248.562L242.062 133.5Z" fill="white"/>
<path d="M64.0614 188.6H65.8874V204H64.0614V188.6ZM79.3298 192.12C79.3298 192.487 79.2711 192.861 79.1538 193.242C79.0364 193.623 78.8604 193.983 78.6258 194.32C78.3911 194.643 78.0904 194.929 77.7238 195.178C77.3571 195.427 76.9244 195.618 76.4258 195.75V195.838C76.8658 195.911 77.2838 196.036 77.6798 196.212C78.0904 196.388 78.4498 196.63 78.7578 196.938C79.0658 197.246 79.3151 197.62 79.5058 198.06C79.6964 198.5 79.7918 199.021 79.7918 199.622C79.7918 200.414 79.6231 201.103 79.2858 201.69C78.9631 202.262 78.5304 202.731 77.9878 203.098C77.4598 203.465 76.8511 203.736 76.1618 203.912C75.4724 204.088 74.7684 204.176 74.0498 204.176C73.8004 204.176 73.5071 204.176 73.1698 204.176C72.8324 204.176 72.4804 204.161 72.1138 204.132C71.7471 204.117 71.3804 204.088 71.0138 204.044C70.6471 204.015 70.3244 203.963 70.0458 203.89V188.732C70.5884 188.644 71.2191 188.571 71.9378 188.512C72.6564 188.453 73.4411 188.424 74.2918 188.424C74.8638 188.424 75.4431 188.475 76.0298 188.578C76.6311 188.666 77.1738 188.849 77.6578 189.128C78.1418 189.392 78.5378 189.766 78.8458 190.25C79.1684 190.734 79.3298 191.357 79.3298 192.12ZM74.2258 202.592C74.6951 202.592 75.1498 202.541 75.5898 202.438C76.0298 202.321 76.4184 202.145 76.7558 201.91C77.0931 201.661 77.3571 201.36 77.5478 201.008C77.7531 200.656 77.8558 200.238 77.8558 199.754C77.8558 199.153 77.7311 198.669 77.4818 198.302C77.2471 197.935 76.9318 197.649 76.5358 197.444C76.1544 197.239 75.7218 197.099 75.2378 197.026C74.7538 196.953 74.2698 196.916 73.7858 196.916H71.8718V202.438C71.9744 202.467 72.1211 202.489 72.3118 202.504C72.5024 202.519 72.7078 202.533 72.9278 202.548C73.1478 202.563 73.3751 202.577 73.6098 202.592C73.8444 202.592 74.0498 202.592 74.2258 202.592ZM73.0158 195.376C73.2651 195.376 73.5658 195.369 73.9178 195.354C74.2698 195.339 74.5631 195.317 74.7978 195.288C75.1498 195.171 75.4798 195.031 75.7878 194.87C76.0958 194.694 76.3671 194.496 76.6018 194.276C76.8511 194.041 77.0418 193.777 77.1738 193.484C77.3204 193.176 77.3938 192.846 77.3938 192.494C77.3938 192.01 77.2984 191.614 77.1078 191.306C76.9318 190.983 76.6898 190.727 76.3818 190.536C76.0738 190.345 75.7218 190.213 75.3258 190.14C74.9298 190.052 74.5264 190.008 74.1158 190.008C73.6318 190.008 73.1844 190.023 72.7738 190.052C72.3778 190.067 72.0771 190.096 71.8718 190.14V195.376H73.0158ZM90.2194 199.732H84.5434L83.0034 204H81.1994L87.0294 188.358H87.8654L93.7174 204H91.8034L90.2194 199.732ZM85.1374 198.148H89.6694L87.9534 193.462L87.4034 191.13H87.3814L86.8314 193.506L85.1374 198.148ZM104.981 196.938H97.5886V204H95.7626V188.6H97.5886V195.31H104.981V188.6H106.807V204H104.981V196.938ZM109.906 196.3C109.906 193.733 110.448 191.768 111.534 190.404C112.619 189.025 114.166 188.336 116.176 188.336C117.261 188.336 118.2 188.527 118.992 188.908C119.784 189.289 120.436 189.832 120.95 190.536C121.478 191.225 121.866 192.061 122.116 193.044C122.365 194.012 122.49 195.097 122.49 196.3C122.49 198.867 121.94 200.839 120.84 202.218C119.754 203.582 118.2 204.264 116.176 204.264C115.105 204.264 114.174 204.073 113.382 203.692C112.604 203.311 111.952 202.775 111.424 202.086C110.91 201.382 110.529 200.546 110.28 199.578C110.03 198.595 109.906 197.503 109.906 196.3ZM111.842 196.3C111.842 197.151 111.922 197.957 112.084 198.72C112.26 199.483 112.524 200.157 112.876 200.744C113.228 201.316 113.675 201.778 114.218 202.13C114.775 202.467 115.428 202.636 116.176 202.636C117.54 202.636 118.61 202.123 119.388 201.096C120.165 200.055 120.554 198.456 120.554 196.3C120.554 195.464 120.466 194.665 120.29 193.902C120.128 193.125 119.864 192.45 119.498 191.878C119.146 191.291 118.691 190.829 118.134 190.492C117.591 190.14 116.938 189.964 116.176 189.964C114.826 189.964 113.763 190.485 112.986 191.526C112.223 192.553 111.842 194.144 111.842 196.3ZM125.011 196.85H130.335V198.478H125.011V196.85ZM139.319 202.284C139.069 202.328 138.776 202.357 138.439 202.372C138.116 202.387 137.808 202.394 137.515 202.394C136.825 202.394 136.173 202.277 135.557 202.042C134.955 201.807 134.427 201.441 133.973 200.942C133.533 200.443 133.181 199.813 132.917 199.05C132.667 198.273 132.543 197.356 132.543 196.3C132.543 195.303 132.667 194.415 132.917 193.638C133.181 192.846 133.547 192.179 134.017 191.636C134.501 191.093 135.073 190.683 135.733 190.404C136.393 190.111 137.126 189.964 137.933 189.964C138.123 189.964 138.358 189.971 138.637 189.986C138.93 190.001 139.157 190.023 139.319 190.052V188.16H141.123V190.118C141.387 190.045 141.695 190.001 142.047 189.986C142.413 189.971 142.714 189.964 142.949 189.964C143.653 189.964 144.305 190.096 144.907 190.36C145.508 190.609 146.029 190.991 146.469 191.504C146.923 192.003 147.275 192.641 147.525 193.418C147.774 194.181 147.899 195.068 147.899 196.08C147.899 197.121 147.752 198.038 147.459 198.83C147.18 199.622 146.799 200.282 146.315 200.81C145.831 201.338 145.266 201.734 144.621 201.998C143.975 202.262 143.286 202.394 142.553 202.394C142.391 202.394 142.149 202.387 141.827 202.372C141.519 202.343 141.284 202.299 141.123 202.24V204.44H139.319V202.284ZM142.685 191.504C142.479 191.504 142.215 191.511 141.893 191.526C141.57 191.541 141.306 191.585 141.101 191.658V200.788C141.247 200.817 141.438 200.839 141.673 200.854C141.922 200.854 142.164 200.854 142.399 200.854C142.897 200.854 143.359 200.759 143.785 200.568C144.225 200.377 144.606 200.084 144.929 199.688C145.266 199.292 145.53 198.793 145.721 198.192C145.911 197.591 146.007 196.887 146.007 196.08C146.007 195.405 145.926 194.789 145.765 194.232C145.618 193.66 145.398 193.169 145.105 192.758C144.826 192.347 144.481 192.039 144.071 191.834C143.66 191.614 143.198 191.504 142.685 191.504ZM137.845 200.854C137.918 200.854 138.013 200.854 138.131 200.854C138.263 200.854 138.402 200.854 138.549 200.854C138.695 200.839 138.835 200.825 138.967 200.81C139.113 200.781 139.238 200.751 139.341 200.722V191.592C139.165 191.563 138.945 191.541 138.681 191.526C138.431 191.511 138.204 191.504 137.999 191.504C137.5 191.504 137.031 191.607 136.591 191.812C136.165 192.003 135.791 192.303 135.469 192.714C135.146 193.11 134.889 193.609 134.699 194.21C134.523 194.811 134.435 195.508 134.435 196.3C134.435 197.004 134.515 197.642 134.677 198.214C134.838 198.771 135.065 199.248 135.359 199.644C135.667 200.04 136.026 200.341 136.437 200.546C136.862 200.751 137.331 200.854 137.845 200.854ZM150.677 188.754C151.234 188.622 151.835 188.534 152.481 188.49C153.126 188.446 153.764 188.424 154.395 188.424C155.069 188.424 155.751 188.49 156.441 188.622C157.145 188.754 157.783 188.996 158.355 189.348C158.927 189.7 159.389 190.184 159.741 190.8C160.107 191.416 160.291 192.201 160.291 193.154C160.291 194.093 160.122 194.885 159.785 195.53C159.447 196.175 159 196.703 158.443 197.114C157.885 197.51 157.247 197.796 156.529 197.972C155.81 198.148 155.069 198.236 154.307 198.236C154.233 198.236 154.109 198.236 153.933 198.236C153.771 198.236 153.595 198.236 153.405 198.236C153.229 198.221 153.053 198.207 152.877 198.192C152.701 198.177 152.576 198.163 152.503 198.148V204H150.677V188.754ZM154.439 190.008C154.057 190.008 153.691 190.015 153.339 190.03C152.987 190.045 152.708 190.081 152.503 190.14V196.52C152.576 196.549 152.693 196.571 152.855 196.586C153.016 196.586 153.185 196.593 153.361 196.608C153.537 196.608 153.705 196.608 153.867 196.608C154.028 196.608 154.145 196.608 154.219 196.608C154.717 196.608 155.209 196.564 155.693 196.476C156.191 196.373 156.639 196.197 157.035 195.948C157.431 195.699 157.746 195.347 157.981 194.892C158.23 194.437 158.355 193.858 158.355 193.154C158.355 192.553 158.237 192.054 158.003 191.658C157.783 191.247 157.482 190.925 157.101 190.69C156.734 190.441 156.316 190.265 155.847 190.162C155.377 190.059 154.908 190.008 154.439 190.008ZM168.895 199.732H163.219L161.679 204H159.875L165.705 188.358H166.541L172.393 204H170.479L168.895 199.732ZM163.813 198.148H168.345L166.629 193.462L166.079 191.13H166.057L165.507 193.506L163.813 198.148ZM183.656 196.938H176.264V204H174.438V188.6H176.264V195.31H183.656V188.6H185.482V204H183.656V196.938ZM192.08 196.872H191.046V204H189.22V188.6H191.046V195.772L192.036 195.464L197.206 188.6H199.318L194.17 195.222L193.246 195.948L194.368 196.828L200 204H197.69L192.08 196.872ZM203.065 188.6H204.891V204H203.065V188.6ZM218.334 192.12C218.334 192.487 218.275 192.861 218.158 193.242C218.04 193.623 217.864 193.983 217.63 194.32C217.395 194.643 217.094 194.929 216.728 195.178C216.361 195.427 215.928 195.618 215.43 195.75V195.838C215.87 195.911 216.288 196.036 216.684 196.212C217.094 196.388 217.454 196.63 217.762 196.938C218.07 197.246 218.319 197.62 218.51 198.06C218.7 198.5 218.796 199.021 218.796 199.622C218.796 200.414 218.627 201.103 218.29 201.69C217.967 202.262 217.534 202.731 216.992 203.098C216.464 203.465 215.855 203.736 215.166 203.912C214.476 204.088 213.772 204.176 213.054 204.176C212.804 204.176 212.511 204.176 212.174 204.176C211.836 204.176 211.484 204.161 211.118 204.132C210.751 204.117 210.384 204.088 210.018 204.044C209.651 204.015 209.328 203.963 209.05 203.89V188.732C209.592 188.644 210.223 188.571 210.942 188.512C211.66 188.453 212.445 188.424 213.296 188.424C213.868 188.424 214.447 188.475 215.034 188.578C215.635 188.666 216.178 188.849 216.662 189.128C217.146 189.392 217.542 189.766 217.85 190.25C218.172 190.734 218.334 191.357 218.334 192.12ZM213.23 202.592C213.699 202.592 214.154 202.541 214.594 202.438C215.034 202.321 215.422 202.145 215.76 201.91C216.097 201.661 216.361 201.36 216.552 201.008C216.757 200.656 216.86 200.238 216.86 199.754C216.86 199.153 216.735 198.669 216.486 198.302C216.251 197.935 215.936 197.649 215.54 197.444C215.158 197.239 214.726 197.099 214.242 197.026C213.758 196.953 213.274 196.916 212.79 196.916H210.876V202.438C210.978 202.467 211.125 202.489 211.316 202.504C211.506 202.519 211.712 202.533 211.932 202.548C212.152 202.563 212.379 202.577 212.614 202.592C212.848 202.592 213.054 202.592 213.23 202.592ZM212.02 195.376C212.269 195.376 212.57 195.369 212.922 195.354C213.274 195.339 213.567 195.317 213.802 195.288C214.154 195.171 214.484 195.031 214.792 194.87C215.1 194.694 215.371 194.496 215.606 194.276C215.855 194.041 216.046 193.777 216.178 193.484C216.324 193.176 216.398 192.846 216.398 192.494C216.398 192.01 216.302 191.614 216.112 191.306C215.936 190.983 215.694 190.727 215.386 190.536C215.078 190.345 214.726 190.213 214.33 190.14C213.934 190.052 213.53 190.008 213.12 190.008C212.636 190.008 212.188 190.023 211.778 190.052C211.382 190.067 211.081 190.096 210.876 190.14V195.376H212.02ZM231.753 203.362C231.313 203.699 230.756 203.934 230.081 204.066C229.407 204.198 228.688 204.264 227.925 204.264C227.001 204.264 226.136 204.11 225.329 203.802C224.523 203.479 223.819 202.995 223.217 202.35C222.616 201.705 222.139 200.883 221.787 199.886C221.435 198.874 221.259 197.679 221.259 196.3C221.259 194.863 221.45 193.645 221.831 192.648C222.227 191.636 222.741 190.815 223.371 190.184C224.017 189.539 224.735 189.069 225.527 188.776C226.319 188.483 227.126 188.336 227.947 188.336C228.827 188.336 229.546 188.387 230.103 188.49C230.661 188.578 231.137 188.703 231.533 188.864L231.093 190.47C230.389 190.133 229.385 189.964 228.079 189.964C227.478 189.964 226.884 190.074 226.297 190.294C225.711 190.514 225.183 190.873 224.713 191.372C224.259 191.871 223.892 192.523 223.613 193.33C223.335 194.137 223.195 195.127 223.195 196.3C223.195 197.356 223.327 198.28 223.591 199.072C223.855 199.864 224.215 200.524 224.669 201.052C225.139 201.58 225.681 201.976 226.297 202.24C226.928 202.504 227.61 202.636 228.343 202.636C229.003 202.636 229.575 202.57 230.059 202.438C230.558 202.306 230.976 202.137 231.313 201.932L231.753 203.362ZM234.466 188.6H236.292V194.584C236.365 194.569 236.49 194.555 236.666 194.54C236.842 194.511 237.032 194.489 237.238 194.474C237.443 194.459 237.656 194.445 237.876 194.43C238.096 194.415 238.294 194.408 238.47 194.408C239.174 194.408 239.856 194.481 240.516 194.628C241.19 194.76 241.784 195.002 242.298 195.354C242.826 195.706 243.251 196.183 243.574 196.784C243.896 197.371 244.058 198.119 244.058 199.028C244.058 199.908 243.904 200.671 243.596 201.316C243.288 201.961 242.862 202.497 242.32 202.922C241.777 203.347 241.139 203.663 240.406 203.868C239.687 204.073 238.902 204.176 238.052 204.176C237.846 204.176 237.597 204.169 237.304 204.154C237.01 204.154 236.695 204.139 236.358 204.11C236.035 204.095 235.705 204.066 235.368 204.022C235.045 203.978 234.744 203.919 234.466 203.846V188.6ZM238.294 202.592C238.822 202.592 239.313 202.526 239.768 202.394C240.237 202.247 240.648 202.035 241 201.756C241.352 201.463 241.623 201.103 241.814 200.678C242.019 200.238 242.122 199.732 242.122 199.16C242.122 198.544 242.012 198.031 241.792 197.62C241.572 197.209 241.278 196.887 240.912 196.652C240.56 196.403 240.149 196.234 239.68 196.146C239.21 196.043 238.726 195.992 238.228 195.992C238.096 195.992 237.934 195.999 237.744 196.014C237.553 196.029 237.362 196.043 237.172 196.058C236.981 196.073 236.805 196.095 236.644 196.124C236.482 196.153 236.365 196.175 236.292 196.19V202.46C236.497 202.504 236.79 202.541 237.172 202.57C237.553 202.585 237.927 202.592 238.294 202.592ZM249.529 196.872H248.495V204H246.669V188.6H248.495V195.772L249.485 195.464L254.655 188.6H256.767L251.619 195.222L250.695 195.948L251.817 196.828L257.449 204H255.139L249.529 196.872Z" fill="white"/>
<line x1="70" y1="174" x2="249" y2="174" stroke="white" stroke-width="2"/>
</svg>
